<?xml version="1.0" standalone="no"?>
<!DOCTYPE svg PUBLIC "-//W3C//DTD SVG 20010904//EN"
 "http://www.w3.org/TR/2001/REC-SVG-20010904/DTD/svg10.dtd">
<svg version="1.0" xmlns="http://www.w3.org/2000/svg"
 width="3300.000000pt" height="3300.000000pt" viewBox="0 0 3300.000000 3300.000000"
 preserveAspectRatio="xMidYMid meet">
<metadata>
Created by potrace 1.16, written by Peter Selinger 2001-2019
</metadata>
<g transform="translate(0.000000,3300.000000) scale(0.100000,-0.100000)"
fill="#000000" stroke="none">
<path d="M15985 22484 c-1181 -116 -2264 -725 -2995 -1684 -484 -636 -779
-1392 -855 -2200 -21 -213 -16 -659 9 -870 64 -542 207 -1026 437 -1480 232
-459 529 -857 887 -1187 692 -637 1528 -1022 2482 -1139 208 -26 764 -26 970
-1 908 113 1669 458 2382 1079 343 299 553 563 690 869 94 211 138 411 138
629 0 341 -108 616 -330 837 -79 80 -212 179 -299 223 -77 39 -171 71 -328
111 -404 103 -704 91 -979 -40 -209 -100 -303 -177 -694 -571 l-315 -318 -115
-55 c-225 -109 -376 -142 -640 -141 -206 0 -311 17 -477 75 -105 37 -265 117
-325 163 -88 67 -125 81 -223 81 -74 0 -98 -4 -137 -23 -138 -68 -215 -233
-175 -373 29 -97 65 -140 184 -219 616 -409 1433 -460 2073 -129 200 104 279
167 575 465 287 288 358 345 520 420 223 103 478 112 655 25 162 -81 261 -191
326 -361 26 -69 28 -86 28 -215 1 -117 -3 -153 -22 -219 -32 -110 -98 -245
-173 -349 -68 -96 -292 -329 -434 -452 -538 -465 -1187 -765 -1870 -864 -716
-105 -1462 11 -2121 329 -393 189 -705 410 -1009 715 -518 518 -857 1155
-1005 1893 -87 434 -87 945 1 1402 248 1297 1200 2363 2484 2781 333 109 656
165 1020 175 693 21 1343 -151 1984 -525 64 -37 126 -65 159 -72 227 -47 432
174 367 396 -14 51 -28 70 -93 135 -91 90 -191 157 -362 244 -340 172 -889
346 -1295 410 -296 46 -794 60 -1100 30z"/>
<path d="M16280 11930 l0 -930 155 0 155 0 0 76 0 77 44 -41 c95 -88 226 -132
391 -132 132 0 221 20 330 74 239 118 374 378 350 674 -22 286 -180 498 -437
590 -97 34 -307 43 -408 17 -77 -20 -163 -64 -220 -112 l-40 -35 0 336 0 336
-160 0 -160 0 0 -930z m815 135 c159 -42 267 -179 282 -357 12 -137 -33 -263
-122 -347 -85 -81 -127 -96 -265 -96 -106 0 -120 2 -172 28 -74 36 -159 128
-189 204 -20 49 -24 76 -24 173 0 108 2 119 31 180 17 36 45 82 63 102 93 107
249 151 396 113z"/>
<path d="M11068 12769 c-102 -15 -181 -39 -283 -88 -186 -89 -322 -224 -410
-405 -73 -151 -98 -297 -83 -493 24 -342 246 -633 574 -752 276 -101 627 -73
863 68 72 43 191 146 191 165 0 10 -91 103 -177 180 l-31 28 -65 -55 c-73 -62
-185 -119 -265 -136 -149 -31 -335 -4 -462 66 -176 98 -299 316 -299 528 0
212 123 430 299 528 127 70 313 97 462 66 80 -16 206 -81 271 -139 l58 -52 96
89 c53 49 101 97 107 107 9 15 1 27 -57 80 -191 176 -493 259 -789 215z"/>
<path d="M12532 12330 c-165 -44 -326 -168 -404 -310 -111 -200 -117 -460 -16
-670 58 -120 168 -231 288 -288 121 -58 185 -73 341 -79 211 -8 351 27 485
122 70 50 100 87 88 107 -15 24 -158 188 -164 188 -4 0 -17 -12 -31 -26 -54
-57 -171 -107 -280 -119 -122 -13 -274 30 -357 99 -33 29 -88 113 -79 122 2 3
229 49 503 103 l499 97 -1 85 c-3 144 -65 286 -175 398 -69 71 -150 121 -254
157 -70 24 -98 28 -225 31 -120 2 -158 0 -218 -17z m323 -255 c69 -20 148 -78
189 -138 30 -45 56 -107 44 -107 -2 0 -168 -31 -368 -70 -200 -38 -365 -68
-368 -65 -8 8 20 140 39 184 40 91 118 162 217 197 50 18 188 17 247 -1z"/>
<path d="M14280 12334 c-85 -22 -175 -70 -225 -120 l-45 -46 0 86 0 86 -155 0
-155 0 0 -670 0 -670 160 0 160 0 0 338 c0 185 5 366 10 402 13 83 60 179 107
221 67 58 136 83 246 87 l97 4 0 149 0 149 -72 -1 c-40 0 -98 -7 -128 -15z"/>
<path d="M15112 12330 c-165 -44 -326 -168 -404 -310 -111 -200 -117 -460 -16
-670 58 -120 168 -231 288 -288 121 -58 185 -73 341 -79 211 -8 351 27 485
122 70 50 100 87 88 107 -15 24 -158 188 -164 188 -4 0 -17 -12 -31 -26 -54
-57 -171 -107 -280 -119 -122 -13 -274 30 -357 99 -33 29 -88 113 -79 122 2 3
229 49 503 103 l499 97 -1 85 c-3 144 -65 286 -175 398 -69 71 -150 121 -254
157 -70 24 -98 28 -225 31 -120 2 -158 0 -218 -17z m323 -255 c69 -20 148 -78
189 -138 30 -45 56 -107 44 -107 -2 0 -168 -31 -368 -70 -200 -38 -365 -68
-368 -65 -8 8 20 140 39 184 40 91 118 162 217 197 50 18 188 17 247 -1z"/>
<path d="M18570 12334 c-85 -22 -175 -70 -225 -120 l-45 -46 0 86 0 86 -155 0
-155 0 0 -670 0 -670 160 0 160 0 0 338 c0 185 5 366 10 402 13 83 60 179 107
221 67 58 136 83 246 87 l97 4 0 149 0 149 -72 -1 c-40 0 -98 -7 -128 -15z"/>
<path d="M21305 12331 c-79 -23 -139 -54 -197 -103 l-48 -39 0 75 0 76 -155 0
-155 0 0 -670 0 -670 160 0 160 0 0 353 c0 196 5 381 11 417 30 186 137 289
313 298 108 5 178 -20 235 -84 75 -85 75 -86 79 -561 l3 -423 160 0 159 0 0
353 c0 196 5 381 11 417 29 184 140 289 314 298 107 5 178 -20 234 -84 75 -85
75 -86 79 -561 l3 -423 160 0 159 0 0 435 c0 358 -3 450 -16 513 -34 166 -119
282 -255 347 -100 48 -160 58 -313 53 -109 -4 -144 -9 -206 -31 -79 -28 -196
-101 -233 -146 l-22 -27 -60 62 c-66 66 -152 114 -243 133 -82 17 -266 13
-337 -8z"/>
<path d="M19030 11913 c1 -483 6 -541 64 -658 58 -117 167 -207 303 -251 74
-24 273 -29 356 -10 86 20 163 57 227 107 l50 39 0 -70 0 -70 155 0 155 0 0
670 0 670 -160 0 -160 0 0 -370 c0 -392 -4 -437 -48 -528 -75 -155 -283 -223
-454 -150 -61 26 -109 80 -139 154 -23 58 -24 66 -27 477 l-3 417 -160 0 -159
0 0 -427z"/>
</g>
</svg>
